<?xml version="1.0" encoding="UTF-8"?>
<!DOCTYPE svg PUBLIC "-//W3C//DTD SVG 1.1//EN" "http://www.w3.org/Graphics/SVG/1.1/DTD/svg11.dtd">
<svg xmlns="http://www.w3.org/2000/svg" version="1.1" width="144px" height="144px" style="shape-rendering:geometricPrecision; text-rendering:geometricPrecision; image-rendering:optimizeQuality; fill-rule:evenodd; clip-rule:evenodd" xmlns:xlink="http://www.w3.org/1999/xlink">
<g><path style="opacity:0.894" fill="#72e3d4" d="M 52.5,-0.5 C 58.1667,-0.5 63.8333,-0.5 69.5,-0.5C 69.8562,5.66998 70.8562,11.67 72.5,17.5C 66.1196,19.4259 59.4529,20.4259 52.5,20.5C 52.5,14.1667 52.5,7.83333 52.5,1.5C 52.5,0.833333 52.5,0.166667 52.5,-0.5 Z"/></g>
<g><path style="opacity:0.861" fill="#77e8c6" d="M 69.5,-0.5 C 75.8333,-0.5 82.1667,-0.5 88.5,-0.5C 90.2789,1.34351 92.6122,2.01017 95.5,1.5C 95.5,2.5 95.5,3.5 95.5,4.5C 94.1858,6.91514 93.5191,9.74848 93.5,13C 93.5577,16.276 94.2243,19.276 95.5,22C 93.9005,23.0658 92.9005,24.5658 92.5,26.5C 93.0019,33.6071 94.0019,40.6071 95.5,47.5C 94.8203,51.322 92.487,52.9886 88.5,52.5C 88.5,53.5 88.5,54.5 88.5,55.5C 86.5,55.5 84.5,55.5 82.5,55.5C 82.5,54.5 82.5,53.5 82.5,52.5C 83.2674,51.828 83.9341,50.9947 84.5,50C 83.8606,47.5895 83.5272,45.0895 83.5,42.5C 83.4593,37.9614 84.126,33.6281 85.5,29.5C 87.0481,29.1788 87.7148,28.1788 87.5,26.5C 89.6056,26.321 91.2723,25.321 92.5,23.5C 85.7018,21.5104 79.0352,19.5104 72.5,17.5C 70.8562,11.67 69.8562,5.66998 69.5,-0.5 Z"/></g>
<g><path style="opacity:0.944" fill="#7aebbe" d="M 95.5,4.5 C 98.3085,4.69332 100.975,5.35998 103.5,6.5C 102.415,15.7989 102.248,25.1322 103,34.5C 104.067,35.1905 105.234,35.6905 106.5,36C 105.552,36.4828 104.552,36.6495 103.5,36.5C 103.5,37.5 103.5,38.5 103.5,39.5C 104.5,39.5 105.5,39.5 106.5,39.5C 104.784,40.9708 102.784,41.9708 100.5,42.5C 100.167,45.5 98.5,47.1667 95.5,47.5C 94.0019,40.6071 93.0019,33.6071 92.5,26.5C 92.9005,24.5658 93.9005,23.0658 95.5,22C 94.2243,19.276 93.5577,16.276 93.5,13C 93.5191,9.74848 94.1858,6.91514 95.5,4.5 Z"/></g>
<g><path style="opacity:0.907" fill="#6edee2" d="M 52.5,1.5 C 52.5,7.83333 52.5,14.1667 52.5,20.5C 51.4479,22.256 49.7812,22.9227 47.5,22.5C 47.5,23.5 47.5,24.5 47.5,25.5C 44.1667,26.1667 40.8333,26.8333 37.5,27.5C 37.1667,30.5 35.5,32.1667 32.5,32.5C 31.2502,32.5774 30.4169,33.244 30,34.5C 29.5005,28.1754 29.3338,21.8421 29.5,15.5C 30.552,15.6495 31.552,15.4828 32.5,15C 31.1859,14.015 30.1859,12.8484 29.5,11.5C 30.5521,9.74395 32.2188,9.07729 34.5,9.5C 34.5,8.5 34.5,7.5 34.5,6.5C 37.8333,5.83333 41.1667,5.16667 44.5,4.5C 44.5,3.5 44.5,2.5 44.5,1.5C 47.1667,1.5 49.8333,1.5 52.5,1.5 Z"/></g>
<g><path style="opacity:0.842" fill="#7ceeb7" d="M 103.5,6.5 C 104.5,6.5 105.5,6.5 106.5,6.5C 106.5,7.5 106.5,8.5 106.5,9.5C 110.487,9.01137 112.82,10.678 113.5,14.5C 115.167,14.5 116.833,14.5 118.5,14.5C 118.83,20.0098 118.164,25.3431 116.5,30.5C 113.5,30.8333 111.833,32.5 111.5,35.5C 108.931,35.7377 107.265,37.071 106.5,39.5C 105.5,39.5 104.5,39.5 103.5,39.5C 103.5,38.5 103.5,37.5 103.5,36.5C 104.552,36.6495 105.552,36.4828 106.5,36C 105.234,35.6905 104.067,35.1905 103,34.5C 102.248,25.1322 102.415,15.7989 103.5,6.5 Z"/></g>
<g><path style="opacity:0.973" fill="#6bdaed" d="M 29.5,11.5 C 30.1859,12.8484 31.1859,14.015 32.5,15C 31.552,15.4828 30.552,15.6495 29.5,15.5C 29.3338,21.8421 29.5005,28.1754 30,34.5C 30.4169,33.244 31.2502,32.5774 32.5,32.5C 32.1667,35.5 30.5,37.1667 27.5,37.5C 27.3067,40.3085 26.64,42.9752 25.5,45.5C 24.5,45.5 23.5,45.5 22.5,45.5C 21.3571,49.7441 20.6904,54.0775 20.5,58.5C 19.5,58.5 18.5,58.5 17.5,58.5C 17.5,61.8333 17.5,65.1667 17.5,68.5C 16.8485,69.0906 16.1818,69.7573 15.5,70.5C 14.3776,68.9564 14.711,67.623 16.5,66.5C 15.9747,65.8076 15.3081,65.3076 14.5,65C 14.8577,62.4643 14.8577,59.7976 14.5,57C 14.9054,56.0546 15.572,55.3879 16.5,55C 14.5427,45.7634 13.8761,36.2634 14.5,26.5C 15.8654,24.4091 16.5321,22.0758 16.5,19.5C 19.1261,18.2376 21.7928,16.9043 24.5,15.5C 25.8532,14.4763 26.5198,13.143 26.5,11.5C 27.5,11.5 28.5,11.5 29.5,11.5 Z"/></g>
<g><path style="opacity:0.964" fill="#69d8f2" d="M 14.5,26.5 C 13.8761,36.2634 14.5427,45.7634 16.5,55C 15.572,55.3879 14.9054,56.0546 14.5,57C 14.8577,59.7976 14.8577,62.4643 14.5,65C 15.3081,65.3076 15.9747,65.8076 16.5,66.5C 14.711,67.623 14.3776,68.9564 15.5,70.5C 16.1818,69.7573 16.8485,69.0906 17.5,68.5C 17.5,70.8333 17.5,73.1667 17.5,75.5C 15.6499,74.3046 14.6499,74.9713 14.5,77.5C 14.6082,78.4419 14.9415,79.2753 15.5,80C 15.0991,91.2101 14.0991,102.377 12.5,113.5C 12.9424,114.739 13.6091,115.739 14.5,116.5C 13.5,116.5 12.5,116.5 11.5,116.5C 10.36,113.975 9.69332,111.308 9.5,108.5C 8.85635,84.0061 9.52302,59.6727 11.5,35.5C 11.0576,34.2613 10.3909,33.2613 9.5,32.5C 10.1667,30.5 10.8333,28.5 11.5,26.5C 12.5,26.5 13.5,26.5 14.5,26.5 Z"/></g>
<g><path style="opacity:0.928" fill="#75e5cd" d="M 65.5,29.5 C 71.3279,29.033 76.9946,29.6997 82.5,31.5C 83.7387,31.0576 84.7387,30.3909 85.5,29.5C 84.126,33.6281 83.4593,37.9614 83.5,42.5C 83.5272,45.0895 83.8606,47.5895 84.5,50C 83.9341,50.9947 83.2674,51.828 82.5,52.5C 76.0007,50.756 69.334,50.0893 62.5,50.5C 62.3338,44.4908 62.5005,38.4908 63,32.5C 64.045,31.6266 64.8783,30.6266 65.5,29.5 Z"/></g>
<g><path style="opacity:0.886" fill="#69d6f6" d="M 9.5,32.5 C 10.3909,33.2613 11.0576,34.2613 11.5,35.5C 9.52302,59.6727 8.85635,84.0061 9.5,108.5C 7.85703,108.52 6.5237,107.853 5.5,106.5C 4.51998,103.914 4.18665,101.247 4.5,98.5C 3.5,98.5 2.5,98.5 1.5,98.5C 1.92271,96.2188 1.25605,94.5521 -0.5,93.5C -0.5,78.8333 -0.5,64.1667 -0.5,49.5C 1.34351,47.7211 2.01017,45.3878 1.5,42.5C 2.5,42.5 3.5,42.5 4.5,42.5C 4.2011,40.396 4.53443,38.396 5.5,36.5C 7.20037,35.3901 8.5337,34.0568 9.5,32.5 Z"/></g>
<g><path style="opacity:0.904" fill="#72e2d7" d="M 65.5,29.5 C 64.8783,30.6266 64.045,31.6266 63,32.5C 62.5005,38.4908 62.3338,44.4908 62.5,50.5C 60.071,51.2648 58.7377,52.9315 58.5,55.5C 57.5,55.5 56.5,55.5 55.5,55.5C 54.5,55.5 53.5,55.5 52.5,55.5C 53.0968,49.0404 52.4302,42.8737 50.5,37C 51.756,36.5831 52.4226,35.7498 52.5,34.5C 54.0481,34.1788 54.7148,33.1788 54.5,31.5C 58.1211,30.6275 61.7878,29.9608 65.5,29.5 Z"/></g>
<g><path style="opacity:0.901" fill="#65b9fe" d="M 141.5,60.5 C 141.5,61.8333 142.167,62.5 143.5,62.5C 143.5,65.1667 143.5,67.8333 143.5,70.5C 142.244,70.9038 141.077,71.5705 140,72.5C 139.5,72.1667 139,71.8333 138.5,71.5C 139.167,70.8333 139.833,70.1667 140.5,69.5C 138.954,68.316 137.287,67.316 135.5,66.5C 134.147,65.4763 133.48,64.143 133.5,62.5C 130.5,62.1667 128.833,60.5 128.5,57.5C 127.5,57.5 126.5,57.5 125.5,57.5C 125.5,56.5 125.5,55.5 125.5,54.5C 123.678,54.1692 122.011,53.5025 120.5,52.5C 120.179,50.9519 119.179,50.2852 117.5,50.5C 116.78,47.0419 116.113,43.5419 115.5,40C 115.883,37.0486 116.549,34.2153 117.5,31.5C 120.5,31.1667 122.167,29.5 122.5,26.5C 124.5,26.5 126.5,26.5 128.5,26.5C 128.5,27.5 128.5,28.5 128.5,29.5C 129.5,29.5 130.5,29.5 131.5,29.5C 131.011,33.487 132.678,35.8203 136.5,36.5C 137.347,40.7995 138.013,45.1328 138.5,49.5C 139.5,49.5 140.5,49.5 141.5,49.5C 141.5,53.1667 141.5,56.8333 141.5,60.5 Z"/></g>
<g><path style="opacity:0.914" fill="#70dfde" d="M 52.5,34.5 C 52.4226,35.7498 51.756,36.5831 50.5,37C 52.4302,42.8737 53.0968,49.0404 52.5,55.5C 53.5,55.5 54.5,55.5 55.5,55.5C 55.5,56.5 55.5,57.5 55.5,58.5C 53.857,58.4802 52.5237,59.1468 51.5,60.5C 50.52,63.0865 50.1866,65.7531 50.5,68.5C 49.5,68.5 48.5,68.5 47.5,68.5C 47.5,70.5 47.5,72.5 47.5,74.5C 48.5,74.5 49.5,74.5 50.5,74.5C 50.5,77.5 50.5,80.5 50.5,83.5C 47.5,83.8333 45.8333,85.5 45.5,88.5C 42.5,88.8333 40.8333,90.5 40.5,93.5C 39.1667,93.5 37.8333,93.5 36.5,93.5C 36.5,92.5 36.5,91.5 36.5,90.5C 38.1238,90.6399 39.2904,89.9733 40,88.5C 40.4999,74.8374 40.6666,61.1707 40.5,47.5C 39.1667,47.5 37.8333,47.5 36.5,47.5C 36.5,46.5 36.5,45.5 36.5,44.5C 38.5,43.8333 40.5,43.1667 42.5,42.5C 43.1667,40.5 43.8333,38.5 44.5,36.5C 47.3085,36.3067 49.9752,35.64 52.5,34.5 Z"/></g>
<g><path style="opacity:0.878" fill="#6edde4" d="M 36.5,47.5 C 37.8333,47.5 39.1667,47.5 40.5,47.5C 40.6666,61.1707 40.4999,74.8374 40,88.5C 39.2904,89.9733 38.1238,90.6399 36.5,90.5C 34.8333,90.5 33.1667,90.5 31.5,90.5C 30.5594,84.2197 29.8928,77.8864 29.5,71.5C 29.8928,65.1136 30.5594,58.7803 31.5,52.5C 32.5,52.5 33.5,52.5 34.5,52.5C 34.0773,50.2188 34.744,48.5521 36.5,47.5 Z"/></g>
<g><path style="opacity:0.75" fill="#74b0fb" d="M 108.5,57.5 C 108.5,58.8333 109.167,59.5 110.5,59.5C 111.492,66.9818 111.825,74.6484 111.5,82.5C 109.144,80.4427 108.144,77.776 108.5,74.5C 107.325,74.719 106.325,74.3857 105.5,73.5C 102.678,70.8439 100.012,68.0105 97.5,65C 96.0997,63.5619 94.433,62.7286 92.5,62.5C 92.5,61.5 92.5,60.5 92.5,59.5C 92.8212,57.9519 93.8212,57.2852 95.5,57.5C 95.8333,54.5 97.5,52.8333 100.5,52.5C 100.5,51.5 100.5,50.5 100.5,49.5C 102.5,49.5 104.5,49.5 106.5,49.5C 107.64,52.0248 108.307,54.6915 108.5,57.5 Z"/></g>
<g><path style="opacity:0.855" fill="#6cb6fd" d="M 120.5,52.5 C 122.011,53.5025 123.678,54.1692 125.5,54.5C 125.5,55.5 125.5,56.5 125.5,57.5C 126.5,57.5 127.5,57.5 128.5,57.5C 128.833,60.5 130.5,62.1667 133.5,62.5C 133.48,64.143 134.147,65.4763 135.5,66.5C 137.287,67.316 138.954,68.316 140.5,69.5C 139.833,70.1667 139.167,70.8333 138.5,71.5C 139,71.8333 139.5,72.1667 140,72.5C 141.077,71.5705 142.244,70.9038 143.5,70.5C 143.5,73.8333 143.5,77.1667 143.5,80.5C 141.598,83.3373 140.931,86.6707 141.5,90.5C 140.412,87.9428 139.412,85.2762 138.5,82.5C 135.5,82.1667 133.833,80.5 133.5,77.5C 132.325,77.719 131.325,77.3857 130.5,76.5C 129.007,74.1742 127.174,72.1742 125,70.5C 123.989,71.0556 123.156,71.7222 122.5,72.5C 122.437,65.7589 121.77,59.0922 120.5,52.5 Z"/></g>
<g><path style="opacity:0.004" fill="#00fffe" d="M 108.5,57.5 C 109.833,57.5 110.5,58.1667 110.5,59.5C 110.5,58.1667 109.833,57.5 108.5,57.5 Z"/></g>
<g><path style="opacity:0.004" fill="#00fffe" d="M 141.5,60.5 C 142.167,60.5 142.833,60.5 143.5,60.5C 143.5,61.1667 143.5,61.8333 143.5,62.5C 142.167,62.5 141.5,61.8333 141.5,60.5 Z"/></g>
<g><path style="opacity:0.924" fill="#7eaafa" d="M 92.5,59.5 C 92.5,60.5 92.5,61.5 92.5,62.5C 94.433,62.7286 96.0997,63.5619 97.5,65C 100.012,68.0105 102.678,70.8439 105.5,73.5C 106.325,74.3857 107.325,74.719 108.5,74.5C 108.144,77.776 109.144,80.4427 111.5,82.5C 110.791,83.404 109.791,83.7373 108.5,83.5C 108.542,87.0087 107.876,90.342 106.5,93.5C 105.5,93.5 104.5,93.5 103.5,93.5C 103.784,95.4147 103.451,97.0813 102.5,98.5C 101.194,96.7548 100.194,94.7548 99.5,92.5C 98.4763,91.1468 97.143,90.4802 95.5,90.5C 94.3522,84.6995 91.0188,83.0328 85.5,85.5C 86.6697,83.7215 88.3364,82.7215 90.5,82.5C 90.3664,78.6984 91.033,75.0318 92.5,71.5C 91.6237,69.057 90.9571,66.557 90.5,64C 90.5687,62.0145 91.2353,60.5145 92.5,59.5 Z"/></g>
<g><path style="opacity:0.861" fill="#6bd9ef" d="M 17.5,75.5 C 19.4165,82.7449 21.0831,90.0782 22.5,97.5C 25.5409,97.3794 27.2076,98.8794 27.5,102C 25.9972,103.921 25.3305,106.088 25.5,108.5C 24.5,108.5 23.5,108.5 22.5,108.5C 22.1667,111.5 20.5,113.167 17.5,113.5C 17.5,114.5 17.5,115.5 17.5,116.5C 16.5,116.5 15.5,116.5 14.5,116.5C 13.6091,115.739 12.9424,114.739 12.5,113.5C 14.0991,102.377 15.0991,91.2101 15.5,80C 14.9415,79.2753 14.6082,78.4419 14.5,77.5C 14.6499,74.9713 15.6499,74.3046 17.5,75.5 Z"/></g>
<g><path style="opacity:0.929" fill="#79aefb" d="M 141.5,90.5 C 141.5,91.5 141.5,92.5 141.5,93.5C 140.5,93.5 139.5,93.5 138.5,93.5C 138.5,95.1667 138.5,96.8333 138.5,98.5C 137.167,98.5 136.5,99.1667 136.5,100.5C 136.737,101.791 136.404,102.791 135.5,103.5C 134.167,103.5 133.5,104.167 133.5,105.5C 132.36,108.025 131.693,110.692 131.5,113.5C 130.5,113.5 129.5,113.5 128.5,113.5C 128.715,115.179 128.048,116.179 126.5,116.5C 126.649,115.448 126.483,114.448 126,113.5C 124.599,115.192 122.766,115.859 120.5,115.5C 120.167,112.5 118.5,110.833 115.5,110.5C 115.279,108.336 114.279,106.67 112.5,105.5C 112.5,103.833 112.5,102.167 112.5,100.5C 113.5,100.5 114.5,100.5 115.5,100.5C 116.876,97.342 117.542,94.0087 117.5,90.5C 118.5,90.5 119.5,90.5 120.5,90.5C 121.426,84.5353 122.092,78.5353 122.5,72.5C 123.156,71.7222 123.989,71.0556 125,70.5C 127.174,72.1742 129.007,74.1742 130.5,76.5C 131.325,77.3857 132.325,77.719 133.5,77.5C 133.833,80.5 135.5,82.1667 138.5,82.5C 139.412,85.2762 140.412,87.9428 141.5,90.5 Z"/></g>
<g><path style="opacity:0.909" fill="#8aa3f9" d="M 102.5,98.5 C 100.071,99.2648 98.7377,100.931 98.5,103.5C 93.8246,105.406 89.4913,107.739 85.5,110.5C 84.0779,110.25 83.0779,109.417 82.5,108C 82.9662,106.701 82.9662,105.201 82.5,103.5C 80.8561,103.714 79.3561,103.38 78,102.5C 77.7547,100.337 76.7547,98.67 75,97.5C 74.5065,95.8659 74.3398,94.1992 74.5,92.5C 77.0248,91.36 79.6915,90.6933 82.5,90.5C 82.7215,88.3364 83.7215,86.6697 85.5,85.5C 91.0188,83.0328 94.3522,84.6995 95.5,90.5C 97.143,90.4802 98.4763,91.1468 99.5,92.5C 100.194,94.7548 101.194,96.7548 102.5,98.5 Z"/></g>
<g><path style="opacity:0.934" fill="#979cf7" d="M 74.5,92.5 C 74.3398,94.1992 74.5065,95.8659 75,97.5C 76.7547,98.67 77.7547,100.337 78,102.5C 79.3561,103.38 80.8561,103.714 82.5,103.5C 82.9662,105.201 82.9662,106.701 82.5,108C 83.0779,109.417 84.0779,110.25 85.5,110.5C 80.4847,111.536 75.3181,112.536 70,113.5C 66.4581,112.887 62.9581,112.22 59.5,111.5C 57.9696,108.979 55.6363,107.979 52.5,108.5C 52.5,107.5 52.5,106.5 52.5,105.5C 50.2627,104.551 47.9294,103.884 45.5,103.5C 45.5,102.5 45.5,101.5 45.5,100.5C 44.5,100.5 43.5,100.5 42.5,100.5C 42.5,99.5 42.5,98.5 42.5,97.5C 43.5025,95.9891 44.1692,94.3224 44.5,92.5C 47.5,92.1667 49.1667,90.5 49.5,87.5C 52.5,87.5 55.5,87.5 58.5,87.5C 58.5,88.5 58.5,89.5 58.5,90.5C 63.7231,91.8727 69.0564,92.5393 74.5,92.5 Z"/></g>
<g><path style="opacity:0.004" fill="#00fffe" d="M 138.5,98.5 C 138.5,99.8333 137.833,100.5 136.5,100.5C 136.5,99.1667 137.167,98.5 138.5,98.5 Z"/></g>
<g><path style="opacity:0.004" fill="#00fffe" d="M 135.5,103.5 C 135.5,104.833 134.833,105.5 133.5,105.5C 133.5,104.167 134.167,103.5 135.5,103.5 Z"/></g>
<g><path style="opacity:0.949" fill="#a495f5" d="M 42.5,97.5 C 42.5,98.5 42.5,99.5 42.5,100.5C 43.5,100.5 44.5,100.5 45.5,100.5C 45.5,101.5 45.5,102.5 45.5,103.5C 47.9294,103.884 50.2627,104.551 52.5,105.5C 52.5,106.5 52.5,107.5 52.5,108.5C 55.6363,107.979 57.9696,108.979 59.5,111.5C 57.0706,111.884 54.7373,112.551 52.5,113.5C 51.9823,116.36 50.3157,118.36 47.5,119.5C 51.8275,120.666 56.1609,121.666 60.5,122.5C 59.0813,123.451 57.4147,123.784 55.5,123.5C 57.1616,126.354 58.6616,129.354 60,132.5C 61.3561,133.38 62.8561,133.714 64.5,133.5C 64.5,135.167 64.5,136.833 64.5,138.5C 66.1667,138.5 67.8333,138.5 69.5,138.5C 69.6287,140.216 69.962,141.883 70.5,143.5C 65.1667,143.5 59.8333,143.5 54.5,143.5C 53.8166,141.824 52.4832,141.157 50.5,141.5C 52.0419,140.837 53.7086,140.17 55.5,139.5C 54.675,138.614 53.675,138.281 52.5,138.5C 52.5,137.5 52.5,136.5 52.5,135.5C 49.5,135.167 47.8333,133.5 47.5,130.5C 44.5,130.167 42.8333,128.5 42.5,125.5C 39.5,125.167 37.8333,123.5 37.5,120.5C 34.6403,119.982 32.6403,118.316 31.5,115.5C 29.8051,116.292 28.1385,115.958 26.5,114.5C 27.325,113.614 28.325,113.281 29.5,113.5C 29.5,112.5 29.5,111.5 29.5,110.5C 29.8333,107.5 31.5,105.833 34.5,105.5C 34.8333,102.5 36.5,100.833 39.5,100.5C 39.5,99.5 39.5,98.5 39.5,97.5C 40.5,97.5 41.5,97.5 42.5,97.5 Z"/></g>
<g><path style="opacity:0.902" fill="#88a5f9" d="M 112.5,105.5 C 114.279,106.67 115.279,108.336 115.5,110.5C 118.5,110.833 120.167,112.5 120.5,115.5C 122.766,115.859 124.599,115.192 126,113.5C 126.483,114.448 126.649,115.448 126.5,116.5C 126.179,118.048 125.179,118.715 123.5,118.5C 123.167,121.5 121.5,123.167 118.5,123.5C 117.576,126.415 115.909,128.748 113.5,130.5C 111.976,129.826 110.642,128.826 109.5,127.5C 108.264,128.246 106.93,128.579 105.5,128.5C 106.08,124.233 104.414,121.233 100.5,119.5C 101.025,118.808 101.692,118.308 102.5,118C 101.244,117.583 100.577,116.75 100.5,115.5C 100.5,114.5 100.5,113.5 100.5,112.5C 104.487,112.989 106.82,111.322 107.5,107.5C 109.322,107.169 110.989,106.502 112.5,105.5 Z"/></g>
<g><path style="opacity:0.916" fill="#ab91f4" d="M 29.5,110.5 C 29.5,111.5 29.5,112.5 29.5,113.5C 28.325,113.281 27.325,113.614 26.5,114.5C 28.1385,115.958 29.8051,116.292 31.5,115.5C 32.6403,118.316 34.6403,119.982 37.5,120.5C 37.8333,123.5 39.5,125.167 42.5,125.5C 42.8333,128.5 44.5,130.167 47.5,130.5C 47.8333,133.5 49.5,135.167 52.5,135.5C 52.5,136.5 52.5,137.5 52.5,138.5C 53.675,138.281 54.675,138.614 55.5,139.5C 53.7086,140.17 52.0419,140.837 50.5,141.5C 49.5,141.5 48.5,141.5 47.5,141.5C 47.5,140.5 47.5,139.5 47.5,138.5C 46.5,138.5 45.5,138.5 44.5,138.5C 41.1667,137.833 37.8333,137.167 34.5,136.5C 34.5,135.5 34.5,134.5 34.5,133.5C 31.9752,132.36 29.3085,131.693 26.5,131.5C 25.8893,128.222 23.8893,126.222 20.5,125.5C 20.1667,124.333 19.8333,123.167 19.5,122C 20.0911,119.761 20.7578,117.594 21.5,115.5C 22.5,115.5 23.5,115.5 24.5,115.5C 24.8333,112.5 26.5,110.833 29.5,110.5 Z"/></g>
<g><path style="opacity:0.892" fill="#91a0f7" d="M 100.5,115.5 C 100.577,116.75 101.244,117.583 102.5,118C 101.692,118.308 101.025,118.808 100.5,119.5C 104.414,121.233 106.08,124.233 105.5,128.5C 106.93,128.579 108.264,128.246 109.5,127.5C 110.642,128.826 111.976,129.826 113.5,130.5C 111.958,131.163 110.291,131.83 108.5,132.5C 107.147,133.524 106.48,134.857 106.5,136.5C 102.788,136.961 99.1211,137.627 95.5,138.5C 95.4802,136.857 96.1468,135.524 97.5,134.5C 96.3112,133.571 94.9778,133.238 93.5,133.5C 93.8174,129.828 92.1507,128.162 88.5,128.5C 87.5924,126.109 87.4257,123.776 88,121.5C 86.9887,122.337 85.8221,122.67 84.5,122.5C 86.6353,120.631 89.3019,119.964 92.5,120.5C 92.5,119.5 92.5,118.5 92.5,117.5C 95.3085,117.307 97.9752,116.64 100.5,115.5 Z"/></g>
<g><path style="opacity:0.863" fill="#9e98f6" d="M 95.5,138.5 C 93.9519,138.821 93.2852,139.821 93.5,141.5C 90.3019,140.964 87.6353,141.631 85.5,143.5C 80.5,143.5 75.5,143.5 70.5,143.5C 69.962,141.883 69.6287,140.216 69.5,138.5C 67.8333,138.5 66.1667,138.5 64.5,138.5C 64.5,136.833 64.5,135.167 64.5,133.5C 62.8561,133.714 61.3561,133.38 60,132.5C 58.6616,129.354 57.1616,126.354 55.5,123.5C 57.4147,123.784 59.0813,123.451 60.5,122.5C 63.1667,122.5 65.8333,122.5 68.5,122.5C 68.5,123.5 68.5,124.5 68.5,125.5C 69.8333,125.5 71.1667,125.5 72.5,125.5C 72.5,124.5 72.5,123.5 72.5,122.5C 76.5,122.5 80.5,122.5 84.5,122.5C 85.8221,122.67 86.9887,122.337 88,121.5C 87.4257,123.776 87.5924,126.109 88.5,128.5C 92.1507,128.162 93.8174,129.828 93.5,133.5C 94.9778,133.238 96.3112,133.571 97.5,134.5C 96.1468,135.524 95.4802,136.857 95.5,138.5 Z"/></g>
<g><path style="opacity:0.008" fill="#6658ff" d="M 44.5,138.5 C 45.5,138.5 46.5,138.5 47.5,138.5C 47.5,139.5 47.5,140.5 47.5,141.5C 45.5,141.5 44.5,140.5 44.5,138.5 Z"/></g>
</svg>
